<svg width="173" height="31" viewBox="0 0 173 31" fill="none" xmlns="http://www.w3.org/2000/svg">
<path d="M9.288 9H8.688V11.4C8.336 11.6 7.82 11.78 7.14 11.94C6.468 12.092 5.74 12.168 4.956 12.168C3.46 12.168 2.288 11.776 1.44 10.992C0.592 10.2 0.168 8.98 0.168 7.332C0.168 5.644 0.588 4.416 1.428 3.648C2.276 2.88 3.484 2.496 5.052 2.496C5.812 2.496 6.524 2.576 7.188 2.736C7.852 2.896 8.352 3.076 8.688 3.276V6.144H5.688V5.58C5.688 5.244 5.616 5.004 5.472 4.86C5.336 4.708 5.116 4.632 4.812 4.632C4.508 4.632 4.284 4.708 4.14 4.86C4.004 5.004 3.936 5.244 3.936 5.58L3.936 9.084C3.936 9.42 4.004 9.664 4.14 9.816C4.284 9.96 4.508 10.032 4.812 10.032C5.116 10.032 5.336 9.96 5.472 9.816C5.616 9.664 5.688 9.42 5.688 9.084V9H5.04V7.212H9.288V9ZM17.6187 10.032V12H14.3307V11.064C13.7547 11.8 13.0347 12.168 12.1707 12.168C11.5067 12.168 11.0067 11.96 10.6707 11.544C10.3427 11.128 10.1787 10.556 10.1787 9.828V7.296H9.65072V5.328H12.9387V9.264C12.9387 9.528 12.9947 9.724 13.1067 9.852C13.2267 9.972 13.4027 10.032 13.6347 10.032C13.8667 10.032 14.0387 9.972 14.1507 9.852C14.2707 9.724 14.3307 9.528 14.3307 9.264V7.296H13.6827V5.328H17.0907V10.032H17.6187ZM18.6453 4.668V2.664H21.0933V4.668H18.6453ZM18.0693 12V10.032H18.5973V7.296H18.0693V5.328H21.3573V10.032H21.8853V12H18.0693ZM24.7017 12.168C23.8857 12.168 23.2697 11.864 22.8537 11.256C22.4457 10.648 22.2417 9.784 22.2417 8.664C22.2417 7.544 22.4457 6.68 22.8537 6.072C23.2697 5.464 23.8857 5.16 24.7017 5.16C25.1097 5.16 25.4697 5.26 25.7817 5.46C26.1017 5.66 26.3617 5.888 26.5617 6.144V4.632H25.8537V2.664H29.3217V10.032H29.8497V12H26.5617V11.184C26.3617 11.44 26.1017 11.668 25.7817 11.868C25.4697 12.068 25.1097 12.168 24.7017 12.168ZM25.8657 10.032C26.0977 10.032 26.2697 9.972 26.3817 9.852C26.5017 9.724 26.5617 9.528 26.5617 9.264V8.064C26.5617 7.8 26.5017 7.608 26.3817 7.488C26.2697 7.36 26.0977 7.296 25.8657 7.296C25.6337 7.296 25.4577 7.36 25.3377 7.488C25.2257 7.608 25.1697 7.8 25.1697 8.064V9.264C25.1697 9.528 25.2257 9.724 25.3377 9.852C25.4577 9.972 25.6337 10.032 25.8657 10.032ZM33.9322 12.168C32.7962 12.168 31.9082 11.872 31.2682 11.28C30.6282 10.68 30.3082 9.808 30.3082 8.664C30.3082 7.52 30.6282 6.652 31.2682 6.06C31.9082 5.46 32.7962 5.16 33.9322 5.16C35.0602 5.16 35.8722 5.456 36.3682 6.048C36.8722 6.632 37.1242 7.36 37.1242 8.232V9.096H33.2362V9.168C33.2362 9.464 33.3242 9.684 33.5002 9.828C33.6762 9.964 33.9682 10.032 34.3762 10.032C34.8642 10.032 35.3282 9.996 35.7682 9.924C36.2082 9.852 36.5922 9.76 36.9202 9.648V11.568C36.6402 11.72 36.2282 11.86 35.6842 11.988C35.1482 12.108 34.5642 12.168 33.9322 12.168ZM34.6282 7.776V7.632C34.6282 7.36 34.5682 7.164 34.4482 7.044C34.3362 6.924 34.1642 6.864 33.9322 6.864C33.7002 6.864 33.5242 6.928 33.4042 7.056C33.2922 7.176 33.2362 7.368 33.2362 7.632V7.776H34.6282ZM42.7252 5.16C42.8852 5.16 43.0372 5.176 43.1812 5.208C43.3252 5.24 43.4452 5.28 43.5412 5.328V7.62C43.2132 7.484 42.8612 7.416 42.4852 7.416C41.9812 7.416 41.5932 7.548 41.3212 7.812C41.0492 8.076 40.9132 8.468 40.9132 8.988V10.032H41.9932V12H37.6252V10.032H38.1532V7.296H37.6252V5.328H40.9132V6.204C41.1372 5.868 41.3932 5.612 41.6812 5.436C41.9692 5.252 42.3172 5.16 42.7252 5.16ZM51.9453 10.032V12H48.6573V11.064C48.0813 11.8 47.3613 12.168 46.4973 12.168C45.8333 12.168 45.3333 11.96 44.9973 11.544C44.6693 11.128 44.5053 10.556 44.5053 9.828V7.296H43.9773V5.328H47.2653V9.264C47.2653 9.528 47.3213 9.724 47.4333 9.852C47.5533 9.972 47.7293 10.032 47.9613 10.032C48.1933 10.032 48.3653 9.972 48.4773 9.852C48.5973 9.724 48.6573 9.528 48.6573 9.264V7.296H48.0093V5.328H51.4173V10.032H51.9453ZM60.3638 10.032V12H56.5718V10.032H57.0758V8.064C57.0758 7.8 57.0198 7.608 56.9078 7.488C56.7958 7.36 56.6278 7.296 56.4038 7.296C55.9238 7.296 55.6838 7.552 55.6838 8.064V10.032H56.1878V12H52.3958V10.032H52.9238V7.296H52.3958V5.328H55.6838V6.264C56.2598 5.528 56.9798 5.16 57.8438 5.16C58.5078 5.16 59.0038 5.368 59.3318 5.784C59.6678 6.2 59.8358 6.772 59.8358 7.5V10.032H60.3638ZM64.613 10.032H65.213V4.632H64.613V2.664H69.881C70.913 2.664 71.701 2.888 72.245 3.336C72.789 3.776 73.061 4.492 73.061 5.484C73.061 6.476 72.789 7.196 72.245 7.644C71.701 8.084 70.913 8.304 69.881 8.304H68.573V10.032H69.725V12H64.613V10.032ZM68.981 6.6C69.445 6.6 69.677 6.344 69.677 5.832V5.4C69.677 5.136 69.617 4.944 69.497 4.824C69.385 4.696 69.213 4.632 68.981 4.632H68.573V6.6H68.981ZM78.6923 5.16C78.8523 5.16 79.0043 5.176 79.1483 5.208C79.2923 5.24 79.4123 5.28 79.5083 5.328V7.62C79.1803 7.484 78.8283 7.416 78.4523 7.416C77.9483 7.416 77.5603 7.548 77.2883 7.812C77.0163 8.076 76.8803 8.468 76.8803 8.988V10.032H77.9603V12H73.5923V10.032H74.1203V7.296H73.5923V5.328H76.8803V6.204C77.1043 5.868 77.3603 5.612 77.6483 5.436C77.9363 5.252 78.2843 5.16 78.6923 5.16ZM83.5925 12.168C82.4565 12.168 81.5685 11.872 80.9285 11.28C80.2885 10.68 79.9685 9.808 79.9685 8.664C79.9685 7.52 80.2885 6.652 80.9285 6.06C81.5685 5.46 82.4565 5.16 83.5925 5.16C84.7445 5.16 85.6365 5.464 86.2685 6.072C86.9005 6.672 87.2165 7.536 87.2165 8.664C87.2165 9.808 86.8965 10.68 86.2565 11.28C85.6165 11.872 84.7285 12.168 83.5925 12.168ZM83.5925 10.032C83.8245 10.032 83.9965 9.972 84.1085 9.852C84.2285 9.724 84.2885 9.528 84.2885 9.264V8.064C84.2885 7.8 84.2285 7.608 84.1085 7.488C83.9965 7.36 83.8245 7.296 83.5925 7.296C83.3605 7.296 83.1845 7.36 83.0645 7.488C82.9525 7.608 82.8965 7.8 82.8965 8.064V9.264C82.8965 9.528 82.9525 9.724 83.0645 9.852C83.1845 9.972 83.3605 10.032 83.5925 10.032ZM88.2345 4.668V2.664L90.6825 2.664V4.668H88.2345ZM88.1505 14.832C87.8225 14.832 87.4865 14.804 87.1425 14.748C86.7905 14.692 86.4945 14.632 86.2545 14.568V12.612C86.6305 12.668 86.9665 12.696 87.2625 12.696C87.8785 12.696 88.1865 12.408 88.1865 11.832V7.296H87.3825V5.328H90.9465V11.592C90.9465 12.688 90.7145 13.5 90.2505 14.028C89.7865 14.564 89.0865 14.832 88.1505 14.832ZM95.1762 12.168C94.0402 12.168 93.1522 11.872 92.5122 11.28C91.8722 10.68 91.5522 9.808 91.5522 8.664C91.5522 7.52 91.8722 6.652 92.5122 6.06C93.1522 5.46 94.0402 5.16 95.1762 5.16C96.3042 5.16 97.1162 5.456 97.6122 6.048C98.1162 6.632 98.3682 7.36 98.3682 8.232V9.096H94.4802V9.168C94.4802 9.464 94.5682 9.684 94.7442 9.828C94.9202 9.964 95.2122 10.032 95.6202 10.032C96.1082 10.032 96.5722 9.996 97.0122 9.924C97.4522 9.852 97.8362 9.76 98.1642 9.648V11.568C97.8842 11.72 97.4722 11.86 96.9282 11.988C96.3922 12.108 95.8082 12.168 95.1762 12.168ZM95.8722 7.776V7.632C95.8722 7.36 95.8122 7.164 95.6922 7.044C95.5802 6.924 95.4082 6.864 95.1762 6.864C94.9442 6.864 94.7682 6.928 94.6482 7.056C94.5362 7.176 94.4802 7.368 94.4802 7.632V7.776H95.8722ZM102.433 12.168C101.289 12.168 100.397 11.872 99.7572 11.28C99.1172 10.68 98.7972 9.808 98.7972 8.664C98.7972 7.52 99.1172 6.652 99.7572 6.06C100.397 5.46 101.285 5.16 102.421 5.16C102.973 5.16 103.501 5.236 104.005 5.388C104.509 5.54 104.901 5.712 105.181 5.904V8.28H103.117V8.064C103.117 7.8 103.061 7.608 102.949 7.488C102.837 7.36 102.661 7.296 102.421 7.296C101.957 7.296 101.725 7.552 101.725 8.064V9.096C101.725 9.72 102.081 10.032 102.793 10.032C103.457 10.032 104.229 9.96 105.109 9.816V11.7C104.837 11.82 104.453 11.928 103.957 12.024C103.469 12.12 102.961 12.168 102.433 12.168ZM108.668 12.168C107.82 12.168 107.18 11.964 106.748 11.556C106.324 11.14 106.112 10.444 106.112 9.468V7.296H105.584V5.328C105.888 5.328 106.116 5.252 106.268 5.1C106.42 4.94 106.496 4.724 106.496 4.452V3.912H109.04V5.328H110.66V7.296H109.04V9.264C109.04 9.528 109.096 9.724 109.208 9.852C109.328 9.972 109.504 10.032 109.736 10.032C110.04 10.032 110.372 9.996 110.732 9.924V11.808C110.508 11.896 110.204 11.976 109.82 12.048C109.444 12.128 109.06 12.168 108.668 12.168Z" fill="white"/>
<path d="M0.888672 25.3047C0.898438 23.4639 1.39648 21.9307 2.29492 20.627H3.03711C2.37793 21.5889 1.7627 23.5664 1.75781 25.3047C1.7627 27.0479 2.37793 29.0205 3.03711 29.9922H2.29492C1.39648 28.6836 0.898438 27.1504 0.888672 25.3047ZM6.14258 28.1074C4.63867 28.1123 3.7207 26.9648 3.7207 25.373C3.7207 23.7617 4.68262 22.6289 6.12305 22.6289C7.25098 22.6289 8.10059 23.2979 8.23242 24.2988H7.39258C7.27051 23.8154 6.85059 23.3711 6.14258 23.3711C5.19531 23.3711 4.56543 24.1523 4.56055 25.3438C4.56543 26.5693 5.18066 27.3555 6.14258 27.3555C6.76758 27.3555 7.24609 27.0186 7.39258 26.4375H8.23242C8.10059 27.3848 7.31934 28.1123 6.14258 28.1074ZM11.1133 25.3047C11.1035 27.1504 10.6055 28.6836 9.70703 29.9922H8.96484C9.62402 29.0205 10.2393 27.0479 10.2441 25.3047C10.2393 23.5664 9.62402 21.5889 8.96484 20.627H9.70703C10.6055 21.9307 11.1035 23.4639 11.1133 25.3047ZM17.6074 23.1367C17.3047 22.2285 16.6162 21.6523 15.6055 21.6523C14.3555 21.6523 13.3643 22.6387 13.3594 24.4648C13.3643 26.2861 14.3555 27.2725 15.6641 27.2773C16.8555 27.2725 17.6807 26.4814 17.6953 25.2266H15.8496V24.4551H18.5547V25.2168C18.5547 26.9697 17.3486 28.0977 15.6641 28.0977C13.7744 28.0977 12.5049 26.7012 12.5098 24.4648C12.5049 22.2285 13.7891 20.832 15.6055 20.832C17.0996 20.832 18.252 21.7695 18.5156 23.1367H17.6074ZM23.1152 25.8223V22.6973H23.9453V28H23.1152V27.1016H23.0566C22.8076 27.6387 22.2803 28.0684 21.4844 28.0684C20.4785 28.0684 19.7607 27.4141 19.7656 26.0664V22.6973H20.6055V26.0078C20.6055 26.7695 21.0791 27.2627 21.7578 27.2578C22.3584 27.2627 23.1104 26.8135 23.1152 25.8223ZM25.293 28V22.6973H26.1328V28H25.293ZM25.127 21.2617C25.1221 20.9492 25.3906 20.7002 25.7129 20.7051C26.0352 20.7002 26.3037 20.9492 26.3086 21.2617C26.3037 21.5693 26.0352 21.8184 25.7129 21.8184C25.3906 21.8184 25.1221 21.5693 25.127 21.2617ZM29.4727 28.1074C28.1494 28.1123 27.2168 27.0479 27.2168 25.3633C27.2168 23.6836 28.1494 22.6289 29.4824 22.6289C30.5127 22.6289 30.835 23.2539 31.0156 23.5371H31.0742V20.9297H31.9238V28H31.1035V27.1895H31.0156C30.8301 27.4824 30.4834 28.1123 29.4727 28.1074ZM28.0664 25.3438C28.0664 26.4717 28.584 27.3555 29.5898 27.3555C30.5615 27.3555 31.0986 26.5352 31.1035 25.3438C31.0986 24.167 30.5762 23.3809 29.5898 23.3809C28.5693 23.3809 28.0664 24.2354 28.0664 25.3438ZM35.6055 28.1074C34.0723 28.1123 33.125 27.0186 33.125 25.3926C33.125 23.7617 34.0869 22.6289 35.5273 22.6289C36.6406 22.6289 37.8174 23.3125 37.8125 25.2754V25.627H33.9648C34.0088 26.75 34.6631 27.3652 35.6055 27.3652C36.2402 27.3652 36.6406 27.0869 36.8359 26.7598H37.7344C37.4854 27.5654 36.6992 28.1123 35.6055 28.1074ZM33.9697 24.9141H36.9629C36.958 24.0303 36.4014 23.3711 35.5273 23.3711C34.6094 23.3711 34.0283 24.0938 33.9697 24.9141ZM38.9062 28V22.6973H39.7168V23.5078H39.7754C39.9658 22.9707 40.5176 22.6143 41.1426 22.6094C41.2695 22.6143 41.4844 22.6191 41.582 22.6289V23.4785C41.5186 23.4639 41.2939 23.4199 41.0742 23.4199C40.3125 23.4199 39.7461 23.9473 39.7461 24.6602V28H38.9062ZM45.752 25.8223V22.6973H46.582V28H45.752V27.1016H45.6934C45.4443 27.6387 44.917 28.0684 44.1211 28.0684C43.1152 28.0684 42.3975 27.4141 42.4023 26.0664V22.6973H43.2422V26.0078C43.2422 26.7695 43.7158 27.2627 44.3945 27.2578C44.9951 27.2627 45.7471 26.8135 45.752 25.8223ZM48.7695 24.8164V28H47.9297V22.6973H48.7402V23.5273H48.8086C49.0576 22.9854 49.5557 22.6289 50.3613 22.6289C51.4355 22.6289 52.1533 23.2832 52.1484 24.6309V28H51.3086V24.6895C51.3086 23.8691 50.8594 23.3809 50.1074 23.3809C49.3359 23.3809 48.7695 23.8984 48.7695 24.8164ZM56.1133 28V20.9297H58.5156C60.1709 20.9297 60.9277 21.916 60.9277 23.1758C60.9277 24.4307 60.1709 25.4316 58.5254 25.4316H56.9922V28H56.1133ZM56.9922 24.6504H58.4863C59.6143 24.6504 60.0537 24.0156 60.0586 23.1758C60.0537 22.3311 59.6143 21.7109 58.4766 21.7109H56.9922V24.6504ZM62.0508 28V22.6973H62.8613V23.5078H62.9199C63.1104 22.9707 63.6621 22.6143 64.2871 22.6094C64.4141 22.6143 64.6289 22.6191 64.7266 22.6289V23.4785C64.6631 23.4639 64.4385 23.4199 64.2188 23.4199C63.457 23.4199 62.8906 23.9473 62.8906 24.6602V28H62.0508ZM67.5391 28.1074C66.0938 28.1123 65.1172 27.0186 65.1172 25.373C65.1172 23.7178 66.0938 22.6289 67.5391 22.6289C68.9795 22.6289 69.9463 23.7178 69.9414 25.373C69.9463 27.0186 68.9795 28.1123 67.5391 28.1074ZM65.957 25.373C65.9619 26.4326 66.46 27.3652 67.5391 27.3652C68.6084 27.3652 69.1016 26.4326 69.1016 25.373C69.1016 24.3184 68.6084 23.3711 67.5391 23.3711C66.46 23.3711 65.9619 24.3184 65.957 25.373ZM71.0449 22.6973H71.8848V28.3809C71.8848 29.3721 71.3721 29.9873 70.3418 29.9922C70.2881 29.9873 70.2344 29.9873 70.166 29.9922V29.2109C70.2246 29.2158 70.2734 29.2158 70.332 29.2109C70.8203 29.2158 71.04 28.9131 71.0449 28.3809V22.6973ZM70.8691 21.2617C70.8643 20.9492 71.1328 20.7002 71.4551 20.7051C71.7773 20.7002 72.0459 20.9492 72.0508 21.2617C72.0459 21.5693 71.7773 21.8184 71.4551 21.8184C71.1328 21.8184 70.8643 21.5693 70.8691 21.2617ZM75.4492 28.1074C73.916 28.1123 72.9688 27.0186 72.9688 25.3926C72.9688 23.7617 73.9307 22.6289 75.3711 22.6289C76.4844 22.6289 77.6611 23.3125 77.6562 25.2754V25.627H73.8086C73.8525 26.75 74.5068 27.3652 75.4492 27.3652C76.084 27.3652 76.4844 27.0869 76.6797 26.7598H77.5781C77.3291 27.5654 76.543 28.1123 75.4492 28.1074ZM73.8135 24.9141H76.8066C76.8018 24.0303 76.2451 23.3711 75.3711 23.3711C74.4531 23.3711 73.8721 24.0938 73.8135 24.9141ZM80.918 28.1074C79.4141 28.1123 78.4961 26.9648 78.4961 25.373C78.4961 23.7617 79.458 22.6289 80.8984 22.6289C82.0264 22.6289 82.876 23.2979 83.0078 24.2988H82.168C82.0459 23.8154 81.626 23.3711 80.918 23.3711C79.9707 23.3711 79.3408 24.1523 79.3359 25.3438C79.3408 26.5693 79.9561 27.3555 80.918 27.3555C81.543 27.3555 82.0215 27.0186 82.168 26.4375H83.0078C82.876 27.3848 82.0947 28.1123 80.918 28.1074ZM86.3574 22.6973V23.4004H85.2441V26.4766C85.2393 27.1553 85.5811 27.2676 85.9375 27.2676C86.0889 27.2676 86.3135 27.2529 86.4355 27.248V28.0293C86.3037 28.0488 86.0986 28.0684 85.8496 28.0684C85.1416 28.0684 84.3994 27.6289 84.3945 26.6914V23.4004H83.5938V22.6973H84.3945V21.4277H85.2441V22.6973H86.3574ZM90.3711 28H89.4531L92.041 20.9297H92.9688L95.5566 28H94.6289L93.9209 26.0078H91.0791L90.3711 28ZM91.3477 25.2363H93.6523L92.5293 22.0723H92.4707L91.3477 25.2363ZM97.2461 20.9297V28H96.4062V20.9297H97.2461ZM99.4238 20.9297V28H98.584V20.9297H99.4238ZM103.379 28V20.9297H105.781C107.437 20.9297 108.193 21.8477 108.193 23.1074C108.193 24.0449 107.773 24.7773 106.875 25.0898L108.467 28H107.441L105.962 25.251C105.908 25.2559 105.85 25.2559 105.791 25.2559H104.258V28H103.379ZM104.258 24.4551H105.752C106.88 24.4551 107.319 23.9473 107.324 23.1074C107.319 22.2627 106.88 21.7109 105.742 21.7109H104.258V24.4551ZM109.355 28V22.6973H110.195V28H109.355ZM109.189 21.2617C109.185 20.9492 109.453 20.7002 109.775 20.7051C110.098 20.7002 110.366 20.9492 110.371 21.2617C110.366 21.5693 110.098 21.8184 109.775 21.8184C109.453 21.8184 109.185 21.5693 109.189 21.2617ZM113.682 30.0996C112.397 30.0996 111.528 29.5381 111.436 28.5566H112.314C112.427 29.0986 112.93 29.3672 113.682 29.3672C114.59 29.3672 115.146 28.9717 115.146 28.0977V27.0234H115.078C114.897 27.3164 114.561 27.917 113.535 27.9219C112.246 27.917 111.279 26.9453 111.279 25.2754C111.279 23.6445 112.212 22.6289 113.545 22.6289C114.575 22.6289 114.907 23.2539 115.098 23.5371H115.166V22.6973H115.986V28.1465C115.981 29.5137 114.976 30.0996 113.682 30.0996ZM112.129 25.3047C112.129 26.4033 112.646 27.1699 113.652 27.1699C114.624 27.1699 115.161 26.4717 115.166 25.3047C115.161 24.167 114.639 23.3809 113.652 23.3809C112.632 23.3809 112.129 24.2354 112.129 25.3047ZM118.164 24.8164V28H117.324V20.9297H118.164V23.5273H118.232C118.481 22.9805 118.955 22.6289 119.795 22.6289C120.879 22.6289 121.602 23.2686 121.602 24.6309V28H120.762V24.6895C120.762 23.8545 120.303 23.3809 119.541 23.3809C118.75 23.3809 118.164 23.8984 118.164 24.8164ZM125.264 22.6973V23.4004H124.15V26.4766C124.146 27.1553 124.487 27.2676 124.844 27.2676C124.995 27.2676 125.22 27.2529 125.342 27.248V28.0293C125.21 28.0488 125.005 28.0684 124.756 28.0684C124.048 28.0684 123.306 27.6289 123.301 26.6914V23.4004H122.5V22.6973H123.301V21.4277H124.15V22.6973H125.264ZM128.965 28V20.9297H131.367C133.022 20.9297 133.779 21.8477 133.779 23.1074C133.779 24.0449 133.359 24.7773 132.461 25.0898L134.053 28H133.027L131.548 25.251C131.494 25.2559 131.436 25.2559 131.377 25.2559H129.844V28H128.965ZM129.844 24.4551H131.338C132.466 24.4551 132.905 23.9473 132.91 23.1074C132.905 22.2627 132.466 21.7109 131.328 21.7109H129.844V24.4551ZM137.109 28.1074C135.576 28.1123 134.629 27.0186 134.629 25.3926C134.629 23.7617 135.591 22.6289 137.031 22.6289C138.145 22.6289 139.321 23.3125 139.316 25.2754V25.627H135.469C135.513 26.75 136.167 27.3652 137.109 27.3652C137.744 27.3652 138.145 27.0869 138.34 26.7598H139.238C138.989 27.5654 138.203 28.1123 137.109 28.1074ZM135.474 24.9141H138.467C138.462 24.0303 137.905 23.3711 137.031 23.3711C136.113 23.3711 135.532 24.0938 135.474 24.9141ZM143.359 24.0742C143.242 23.6348 142.905 23.3467 142.285 23.3418C141.631 23.3467 141.167 23.6982 141.162 24.1426C141.167 24.4941 141.45 24.7334 142.07 24.8848L142.861 25.0801C143.809 25.3047 144.272 25.7783 144.277 26.5156C144.272 27.4336 143.525 28.1123 142.197 28.1074C141.006 28.1123 140.298 27.5801 140.156 26.6133H141.035C141.133 27.1309 141.509 27.3799 142.178 27.375C142.935 27.3799 143.408 27.0625 143.408 26.5645C143.408 26.1885 143.14 25.9443 142.539 25.8027L141.738 25.6172C140.815 25.4023 140.322 24.8994 140.322 24.1914C140.322 23.2832 141.118 22.6289 142.285 22.6289C143.384 22.6289 144.072 23.2148 144.18 24.0742H143.359ZM147.598 28.1074C146.064 28.1123 145.117 27.0186 145.117 25.3926C145.117 23.7617 146.079 22.6289 147.52 22.6289C148.633 22.6289 149.81 23.3125 149.805 25.2754V25.627H145.957C146.001 26.75 146.655 27.3652 147.598 27.3652C148.232 27.3652 148.633 27.0869 148.828 26.7598H149.727C149.478 27.5654 148.691 28.1123 147.598 28.1074ZM145.962 24.9141H148.955C148.95 24.0303 148.394 23.3711 147.52 23.3711C146.602 23.3711 146.021 24.0938 145.962 24.9141ZM150.898 28V22.6973H151.709V23.5078H151.768C151.958 22.9707 152.51 22.6143 153.135 22.6094C153.262 22.6143 153.477 22.6191 153.574 22.6289V23.4785C153.511 23.4639 153.286 23.4199 153.066 23.4199C152.305 23.4199 151.738 23.9473 151.738 24.6602V28H150.898ZM158.926 22.6973L156.963 28H156.094L154.141 22.6973H155.059L156.504 26.9062H156.562L158.008 22.6973H158.926ZM161.885 28.1074C160.352 28.1123 159.404 27.0186 159.404 25.3926C159.404 23.7617 160.366 22.6289 161.807 22.6289C162.92 22.6289 164.097 23.3125 164.092 25.2754V25.627H160.244C160.288 26.75 160.942 27.3652 161.885 27.3652C162.52 27.3652 162.92 27.0869 163.115 26.7598H164.014C163.765 27.5654 162.979 28.1123 161.885 28.1074ZM160.249 24.9141H163.242C163.237 24.0303 162.681 23.3711 161.807 23.3711C160.889 23.3711 160.308 24.0938 160.249 24.9141ZM167.188 28.1074C165.864 28.1123 164.932 27.0479 164.932 25.3633C164.932 23.6836 165.864 22.6289 167.197 22.6289C168.228 22.6289 168.55 23.2539 168.73 23.5371H168.789V20.9297H169.639V28H168.818V27.1895H168.73C168.545 27.4824 168.198 28.1123 167.188 28.1074ZM165.781 25.3438C165.781 26.4717 166.299 27.3555 167.305 27.3555C168.276 27.3555 168.813 26.5352 168.818 25.3438C168.813 24.167 168.291 23.3809 167.305 23.3809C166.284 23.3809 165.781 24.2354 165.781 25.3438ZM171.689 28.0586C171.348 28.0537 171.055 27.7705 171.064 27.4238C171.055 27.082 171.348 26.7988 171.689 26.7988C172.036 26.7988 172.319 27.082 172.314 27.4238C172.319 27.7705 172.036 28.0537 171.689 28.0586Z" fill="white"/>
</svg>
