<svg viewBox="0 0 1438 161" fill="none" xmlns="http://www.w3.org/2000/svg">
<path d="M118.744 85H110.944V116.2C106.368 118.8 99.66 121.14 90.82 123.22C82.084 125.196 72.62 126.184 62.428 126.184C42.98 126.184 27.744 121.088 16.72 110.896C5.696 100.6 0.184 84.74 0.184 63.316C0.184 41.372 5.644 25.408 16.564 15.424C27.588 5.43999 43.292 0.447991 63.676 0.447991C73.556 0.447991 82.812 1.48799 91.444 3.568C100.076 5.648 106.576 7.98799 110.944 10.588V47.872H71.944V40.54C71.944 36.172 71.008 33.052 69.136 31.18C67.368 29.204 64.508 28.216 60.556 28.216C56.604 28.216 53.692 29.204 51.82 31.18C50.052 33.052 49.168 36.172 49.168 40.54V86.092C49.168 90.46 50.052 93.632 51.82 95.608C53.692 97.48 56.604 98.416 60.556 98.416C64.508 98.416 67.368 97.48 69.136 95.608C71.008 93.632 71.944 90.46 71.944 86.092V85H63.52V61.756H118.744V85ZM227.043 98.416V124H184.299V111.832C176.811 121.4 167.451 126.184 156.219 126.184C147.587 126.184 141.087 123.48 136.719 118.072C132.455 112.664 130.323 105.228 130.323 95.764V62.848H123.459V37.264H166.203V88.432C166.203 91.864 166.931 94.412 168.387 96.076C169.947 97.636 172.235 98.416 175.251 98.416C178.267 98.416 180.503 97.636 181.959 96.076C183.519 94.412 184.299 91.864 184.299 88.432V62.848H175.875V37.264H220.179V98.416H227.043ZM240.389 28.684V2.63199H272.213V28.684H240.389ZM232.901 124V98.416H239.765V62.848H232.901V37.264H275.645V98.416H282.509V124H232.901ZM319.122 126.184C308.514 126.184 300.506 122.232 295.098 114.328C289.794 106.424 287.142 95.192 287.142 80.632C287.142 66.072 289.794 54.84 295.098 46.936C300.506 39.032 308.514 35.08 319.122 35.08C324.426 35.08 329.106 36.38 333.162 38.98C337.322 41.58 340.702 44.544 343.302 47.872V28.216H334.098V2.63199H379.182V98.416H386.046V124H343.302V113.392C340.702 116.72 337.322 119.684 333.162 122.284C329.106 124.884 324.426 126.184 319.122 126.184ZM334.254 98.416C337.27 98.416 339.506 97.636 340.962 96.076C342.522 94.412 343.302 91.864 343.302 88.432V72.832C343.302 69.4 342.522 66.904 340.962 65.344C339.506 63.68 337.27 62.848 334.254 62.848C331.238 62.848 328.95 63.68 327.39 65.344C325.934 66.904 325.206 69.4 325.206 72.832V88.432C325.206 91.864 325.934 94.412 327.39 96.076C328.95 97.636 331.238 98.416 334.254 98.416ZM439.118 126.184C424.35 126.184 412.806 122.336 404.486 114.64C396.166 106.84 392.006 95.504 392.006 80.632C392.006 65.76 396.166 54.476 404.486 46.78C412.806 38.98 424.35 35.08 439.118 35.08C453.782 35.08 464.338 38.928 470.786 46.624C477.338 54.216 480.614 63.68 480.614 75.016V86.248H430.07V87.184C430.07 91.032 431.214 93.892 433.502 95.764C435.79 97.532 439.586 98.416 444.89 98.416C451.234 98.416 457.266 97.948 462.986 97.012C468.706 96.076 473.698 94.88 477.962 93.424V118.384C474.322 120.36 468.966 122.18 461.894 123.844C454.926 125.404 447.334 126.184 439.118 126.184ZM448.166 69.088V67.216C448.166 63.68 447.386 61.132 445.826 59.572C444.37 58.012 442.134 57.232 439.118 57.232C436.102 57.232 433.814 58.064 432.254 59.728C430.798 61.288 430.07 63.784 430.07 67.216V69.088H448.166ZM553.427 35.08C555.507 35.08 557.483 35.288 559.355 35.704C561.227 36.12 562.787 36.64 564.035 37.264V67.06C559.771 65.292 555.195 64.408 550.307 64.408C543.755 64.408 538.711 66.124 535.175 69.556C531.639 72.988 529.871 78.084 529.871 84.844V98.416H543.911V124H487.127V98.416H493.991V62.848H487.127V37.264H529.871V48.652C532.783 44.284 536.111 40.956 539.855 38.668C543.599 36.276 548.123 35.08 553.427 35.08ZM673.289 98.416V124H630.545V111.832C623.057 121.4 613.697 126.184 602.465 126.184C593.833 126.184 587.333 123.48 582.965 118.072C578.701 112.664 576.569 105.228 576.569 95.764V62.848L569.705 62.848V37.264L612.449 37.264V88.432C612.449 91.864 613.177 94.412 614.633 96.076C616.193 97.636 618.481 98.416 621.497 98.416C624.513 98.416 626.749 97.636 628.205 96.076C629.765 94.412 630.545 91.864 630.545 88.432V62.848H622.121V37.264H666.425V98.416H673.289ZM782.73 98.416V124H733.434V98.416H739.986V72.832C739.986 69.4 739.258 66.904 737.802 65.344C736.346 63.68 734.162 62.848 731.25 62.848C725.01 62.848 721.89 66.176 721.89 72.832V98.416H728.442V124H679.146V98.416H686.01V62.848H679.146V37.264H721.89V49.432C729.378 39.864 738.738 35.08 749.97 35.08C758.602 35.08 765.05 37.784 769.314 43.192C773.682 48.6 775.866 56.036 775.866 65.5V98.416H782.73ZM837.969 98.416H845.769V28.216H837.969V2.63199L906.453 2.63199C919.869 2.63199 930.113 5.54399 937.185 11.368C944.257 17.088 947.793 26.396 947.793 39.292C947.793 52.188 944.257 61.548 937.185 67.372C930.113 73.092 919.869 75.952 906.453 75.952H889.449V98.416H904.425V124H837.969V98.416ZM894.753 53.8C900.785 53.8 903.801 50.472 903.801 43.816V38.2C903.801 34.768 903.021 32.272 901.461 30.712C900.005 29.048 897.769 28.216 894.753 28.216H889.449V53.8H894.753ZM1021 35.08C1023.08 35.08 1025.06 35.288 1026.93 35.704C1028.8 36.12 1030.36 36.64 1031.61 37.264V67.06C1027.34 65.292 1022.77 64.408 1017.88 64.408C1011.33 64.408 1006.28 66.124 1002.75 69.556C999.212 72.988 997.444 78.084 997.444 84.844V98.416H1011.48V124H954.7V98.416H961.564V62.848H954.7V37.264H997.444V48.652C1000.36 44.284 1003.68 40.956 1007.43 38.668C1011.17 36.276 1015.7 35.08 1021 35.08ZM1084.7 126.184C1069.93 126.184 1058.39 122.336 1050.07 114.64C1041.75 106.84 1037.59 95.504 1037.59 80.632C1037.59 65.76 1041.75 54.476 1050.07 46.78C1058.39 38.98 1069.93 35.08 1084.7 35.08C1099.68 35.08 1111.27 39.032 1119.49 46.936C1127.71 54.736 1131.81 65.968 1131.81 80.632C1131.81 95.504 1127.65 106.84 1119.33 114.64C1111.01 122.336 1099.47 126.184 1084.7 126.184ZM1084.7 98.416C1087.72 98.416 1089.95 97.636 1091.41 96.076C1092.97 94.412 1093.75 91.864 1093.75 88.432V72.832C1093.75 69.4 1092.97 66.904 1091.41 65.344C1089.95 63.68 1087.72 62.848 1084.7 62.848C1081.69 62.848 1079.4 63.68 1077.84 65.344C1076.38 66.904 1075.65 69.4 1075.65 72.832V88.432C1075.65 91.864 1076.38 94.412 1077.84 96.076C1079.4 97.636 1081.69 98.416 1084.7 98.416ZM1145.05 28.684V2.63199H1176.87V28.684H1145.05ZM1143.96 160.816C1139.69 160.816 1135.32 160.452 1130.85 159.724C1126.28 158.996 1122.43 158.216 1119.31 157.384V131.956C1124.2 132.684 1128.56 133.048 1132.41 133.048C1140.42 133.048 1144.42 129.304 1144.42 121.816V62.848H1133.97V37.264H1180.3V118.696C1180.3 132.944 1177.29 143.5 1171.26 150.364C1165.22 157.332 1156.12 160.816 1143.96 160.816ZM1235.29 126.184C1220.52 126.184 1208.98 122.336 1200.66 114.64C1192.34 106.84 1188.18 95.504 1188.18 80.632C1188.18 65.76 1192.34 54.476 1200.66 46.78C1208.98 38.98 1220.52 35.08 1235.29 35.08C1249.95 35.08 1260.51 38.928 1266.96 46.624C1273.51 54.216 1276.79 63.68 1276.79 75.016V86.248H1226.24V87.184C1226.24 91.032 1227.39 93.892 1229.67 95.764C1231.96 97.532 1235.76 98.416 1241.06 98.416C1247.41 98.416 1253.44 97.948 1259.16 97.012C1264.88 96.076 1269.87 94.88 1274.13 93.424V118.384C1270.49 120.36 1265.14 122.18 1258.07 123.844C1251.1 125.404 1243.51 126.184 1235.29 126.184ZM1244.34 69.088V67.216C1244.34 63.68 1243.56 61.132 1242 59.572C1240.54 58.012 1238.31 57.232 1235.29 57.232C1232.27 57.232 1229.99 58.064 1228.43 59.728C1226.97 61.288 1226.24 63.784 1226.24 67.216V69.088H1244.34ZM1329.63 126.184C1314.76 126.184 1303.16 122.336 1294.84 114.64C1286.52 106.84 1282.36 95.504 1282.36 80.632C1282.36 65.76 1286.52 54.476 1294.84 46.78C1303.16 38.98 1314.71 35.08 1329.48 35.08C1336.65 35.08 1343.52 36.068 1350.07 38.044C1356.62 40.02 1361.72 42.256 1365.36 44.752V75.64H1338.52V72.832C1338.52 69.4 1337.8 66.904 1336.34 65.344C1334.88 63.68 1332.6 62.848 1329.48 62.848C1323.44 62.848 1320.43 66.176 1320.43 72.832V86.248C1320.43 94.36 1325.06 98.416 1334.31 98.416C1342.94 98.416 1352.98 97.48 1364.42 95.608V120.1C1360.88 121.66 1355.89 123.064 1349.44 124.312C1343.1 125.56 1336.5 126.184 1329.63 126.184ZM1410.68 126.184C1399.65 126.184 1391.33 123.532 1385.72 118.228C1380.21 112.82 1377.45 103.772 1377.45 91.084V62.848H1370.59V37.264C1374.54 37.264 1377.5 36.276 1379.48 34.3C1381.45 32.22 1382.44 29.412 1382.44 25.876V18.856H1415.51V37.264H1436.57V62.848H1415.51V88.432C1415.51 91.864 1416.24 94.412 1417.7 96.076C1419.26 97.636 1421.55 98.416 1424.56 98.416C1428.51 98.416 1432.83 97.948 1437.51 97.012V121.504C1434.6 122.648 1430.65 123.688 1425.65 124.624C1420.77 125.664 1415.77 126.184 1410.68 126.184Z" fill="black"/>
</svg>
